# xmcd
#
# Track frame offsets:
#	150
#	12667
#	25212
#	37976
#	49580
#	60941
#	71703
#	84050
#	93062
#	102507
#	112029
#	124805
#
# Disc length: 1806 seconds
#
# Revision: 1
# Processed by: cddbd v1.5.2PL0 Copyright (c) Steve Scherf et al.
# Submitted via: audiograbber 1.83.01
#
DISCID=91070c0c
DTITLE=Porter Wagoner - A Satisfied Mind
DYEAR=1963
DGENRE=Country
TTITLE0=A Satisfied Mind
TTITLE1=Born To Lose
TTITLE2=I Can't Live With You (I Can't Live Without You)
TTITLE3=Ivory Tower
TTITLE4=Settin' The Woods On Fire
TTITLE5=I'm Stepping Out Tonight
TTITLE6=Company's Comin'
TTITLE7=I Like Girls
TTITLE8=Your Love
TTITLE9=As Long As I'm Dreaming
TTITLE10=Midnight
TTITLE11=Eat, Drink And Be Merry (Tomorrow You'll Cry)
EXTD=
EXTT0=
EXTT1=
EXTT2=
EXTT3=
EXTT4=
EXTT5=
EXTT6=
EXTT7=
EXTT8=
EXTT9=
EXTT10=
EXTT11=
PLAYORDER=
